# xmcd
#
# Track frame offsets: 
#        150
#        52875
#        75675
#        158400
#
# Disc length: 2728 seconds
#
# Revision: 0
# Processed by: cddbd v1.5PL3 Copyright (c) Steve Scherf et al.
# Submitted via: ExactAudioCopy v0.95a5
#
DISCID=1e0aa604
DTITLE=Albert Collins and The Icebreakers - The Bayou (Disc2)
DYEAR=1979
DGENRE=Blues
TTITLE0=Cold Cold Feelin'
TTITLE1=If You Love Me Like You Say
TTITLE2=Frosty
TTITLE3=Snatchin It Back
EXTD=
EXTT0=
EXTT1=
EXTT2=
EXTT3=
PLAYORDER=
